<mxfile host="app.diagrams.net" modified="2021-08-26T17:58:36.039Z" agent="5.0 (Windows NT 10.0; Win64; x64) AppleWebKit/537.36 (KHTML, like Gecko) Chrome/92.0.4515.159 Safari/537.36" etag="tMGolJAj0LwfFyOpWk2s" version="15.0.0" type="github">
  <diagram id="WnQ4R_zVBq9NMKznRUDk" name="Page-1">
    <mxGraphModel dx="1490" dy="613" grid="1" gridSize="10" guides="1" tooltips="1" connect="1" arrows="1" fold="1" page="1" pageScale="1" pageWidth="827" pageHeight="1169" math="0" shadow="0">
      <root>
        <mxCell id="0" />
        <mxCell id="1" parent="0" />
        <mxCell id="hPomdwtzm1hRZKcnTCmY-47" value="" style="rounded=0;whiteSpace=wrap;html=1;strokeColor=#000000;fillColor=#CCCCCC;" vertex="1" parent="1">
          <mxGeometry x="50" y="50" width="760" height="40" as="geometry" />
        </mxCell>
        <mxCell id="hPomdwtzm1hRZKcnTCmY-46" value="" style="whiteSpace=wrap;html=1;aspect=fixed;strokeColor=#d79b00;fillColor=#ffe6cc;" vertex="1" parent="1">
          <mxGeometry x="50" y="90" width="760" height="760" as="geometry" />
        </mxCell>
        <mxCell id="hPomdwtzm1hRZKcnTCmY-1" value="&lt;font style=&quot;font-size: 14px&quot;&gt;&lt;b&gt;USER&lt;/b&gt;&lt;/font&gt;" style="text;html=1;align=center;verticalAlign=middle;resizable=0;points=[];autosize=1;strokeColor=none;" vertex="1" parent="1">
          <mxGeometry x="288" y="60" width="50" height="20" as="geometry" />
        </mxCell>
        <mxCell id="hPomdwtzm1hRZKcnTCmY-2" value="&lt;b&gt;&lt;font style=&quot;font-size: 14px&quot;&gt;SYSTEM&lt;/font&gt;&lt;/b&gt;" style="text;html=1;align=center;verticalAlign=middle;resizable=0;points=[];autosize=1;strokeColor=none;" vertex="1" parent="1">
          <mxGeometry x="640" y="60" width="70" height="20" as="geometry" />
        </mxCell>
        <mxCell id="hPomdwtzm1hRZKcnTCmY-3" value="" style="endArrow=classic;html=1;exitX=0.201;exitY=-0.001;exitDx=0;exitDy=0;exitPerimeter=0;" edge="1" parent="1" source="hPomdwtzm1hRZKcnTCmY-46" target="hPomdwtzm1hRZKcnTCmY-4">
          <mxGeometry width="50" height="50" relative="1" as="geometry">
            <mxPoint x="200" y="80" as="sourcePoint" />
            <mxPoint x="600" y="120" as="targetPoint" />
            <Array as="points">
              <mxPoint x="200" y="120" />
            </Array>
          </mxGeometry>
        </mxCell>
        <mxCell id="hPomdwtzm1hRZKcnTCmY-4" value="Show Alert Message Request for Urgent Trip" style="ellipse;whiteSpace=wrap;html=1;" vertex="1" parent="1">
          <mxGeometry x="600" y="100" width="140" height="40" as="geometry" />
        </mxCell>
        <mxCell id="hPomdwtzm1hRZKcnTCmY-5" value="" style="endArrow=classic;html=1;exitX=0.5;exitY=1;exitDx=0;exitDy=0;" edge="1" parent="1" source="hPomdwtzm1hRZKcnTCmY-4">
          <mxGeometry width="50" height="50" relative="1" as="geometry">
            <mxPoint x="390" y="310" as="sourcePoint" />
            <mxPoint x="520" y="160" as="targetPoint" />
            <Array as="points">
              <mxPoint x="670" y="160" />
            </Array>
          </mxGeometry>
        </mxCell>
        <mxCell id="hPomdwtzm1hRZKcnTCmY-6" value="Click at Alert Message" style="ellipse;whiteSpace=wrap;html=1;" vertex="1" parent="1">
          <mxGeometry x="430" y="140" width="90" height="40" as="geometry" />
        </mxCell>
        <mxCell id="hPomdwtzm1hRZKcnTCmY-7" value="" style="endArrow=classic;html=1;exitX=0;exitY=0.5;exitDx=0;exitDy=0;" edge="1" parent="1" source="hPomdwtzm1hRZKcnTCmY-6">
          <mxGeometry width="50" height="50" relative="1" as="geometry">
            <mxPoint x="390" y="310" as="sourcePoint" />
            <mxPoint x="410" y="160" as="targetPoint" />
          </mxGeometry>
        </mxCell>
        <mxCell id="hPomdwtzm1hRZKcnTCmY-8" value="" style="shape=line;html=1;strokeWidth=6;fillColor=#000000;rotation=-90;" vertex="1" parent="1">
          <mxGeometry x="384.5" y="155.5" width="51" height="10" as="geometry" />
        </mxCell>
        <mxCell id="hPomdwtzm1hRZKcnTCmY-10" value="" style="endArrow=classic;html=1;exitX=0;exitY=0.5;exitDx=0;exitDy=0;" edge="1" parent="1">
          <mxGeometry width="50" height="50" relative="1" as="geometry">
            <mxPoint x="408.5" y="140" as="sourcePoint" />
            <mxPoint x="388.5" y="140" as="targetPoint" />
          </mxGeometry>
        </mxCell>
        <mxCell id="hPomdwtzm1hRZKcnTCmY-11" value="" style="endArrow=classic;html=1;exitX=0;exitY=0.5;exitDx=0;exitDy=0;" edge="1" parent="1">
          <mxGeometry width="50" height="50" relative="1" as="geometry">
            <mxPoint x="409.5" y="180" as="sourcePoint" />
            <mxPoint x="389.5" y="180" as="targetPoint" />
          </mxGeometry>
        </mxCell>
        <mxCell id="hPomdwtzm1hRZKcnTCmY-12" value="See Time" style="ellipse;whiteSpace=wrap;html=1;" vertex="1" parent="1">
          <mxGeometry x="334" y="127.5" width="54.5" height="32.5" as="geometry" />
        </mxCell>
        <mxCell id="hPomdwtzm1hRZKcnTCmY-13" value="See Location" style="ellipse;whiteSpace=wrap;html=1;" vertex="1" parent="1">
          <mxGeometry x="334" y="165.5" width="54.5" height="34.5" as="geometry" />
        </mxCell>
        <mxCell id="hPomdwtzm1hRZKcnTCmY-14" value="" style="endArrow=classic;html=1;exitX=0;exitY=0.5;exitDx=0;exitDy=0;" edge="1" parent="1">
          <mxGeometry width="50" height="50" relative="1" as="geometry">
            <mxPoint x="334" y="143.25" as="sourcePoint" />
            <mxPoint x="314" y="143.25" as="targetPoint" />
          </mxGeometry>
        </mxCell>
        <mxCell id="hPomdwtzm1hRZKcnTCmY-15" value="" style="endArrow=classic;html=1;exitX=0;exitY=0.5;exitDx=0;exitDy=0;" edge="1" parent="1">
          <mxGeometry width="50" height="50" relative="1" as="geometry">
            <mxPoint x="334" y="182.25" as="sourcePoint" />
            <mxPoint x="314" y="182.25" as="targetPoint" />
          </mxGeometry>
        </mxCell>
        <mxCell id="hPomdwtzm1hRZKcnTCmY-16" value="" style="shape=line;html=1;strokeWidth=6;fillColor=#000000;rotation=-90;" vertex="1" parent="1">
          <mxGeometry x="288" y="155.5" width="51" height="10" as="geometry" />
        </mxCell>
        <mxCell id="hPomdwtzm1hRZKcnTCmY-17" value="" style="endArrow=classic;html=1;" edge="1" parent="1">
          <mxGeometry width="50" height="50" relative="1" as="geometry">
            <mxPoint x="309" y="165" as="sourcePoint" />
            <mxPoint x="280" y="165" as="targetPoint" />
          </mxGeometry>
        </mxCell>
        <mxCell id="hPomdwtzm1hRZKcnTCmY-18" value="Check Driver Availability" style="ellipse;whiteSpace=wrap;html=1;" vertex="1" parent="1">
          <mxGeometry x="192" y="145.5" width="90" height="40" as="geometry" />
        </mxCell>
        <mxCell id="hPomdwtzm1hRZKcnTCmY-19" value="" style="endArrow=classic;html=1;exitX=0.5;exitY=1;exitDx=0;exitDy=0;entryX=0;entryY=0.5;entryDx=0;entryDy=0;" edge="1" parent="1" source="hPomdwtzm1hRZKcnTCmY-18" target="hPomdwtzm1hRZKcnTCmY-21">
          <mxGeometry width="50" height="50" relative="1" as="geometry">
            <mxPoint x="270" y="310" as="sourcePoint" />
            <mxPoint x="560" y="210" as="targetPoint" />
            <Array as="points">
              <mxPoint x="237" y="210" />
            </Array>
          </mxGeometry>
        </mxCell>
        <mxCell id="hPomdwtzm1hRZKcnTCmY-21" value="Is Available" style="rhombus;whiteSpace=wrap;html=1;fillColor=#FFFFFF;" vertex="1" parent="1">
          <mxGeometry x="600" y="185.5" width="80" height="50" as="geometry" />
        </mxCell>
        <mxCell id="hPomdwtzm1hRZKcnTCmY-22" value="" style="endArrow=classic;html=1;exitX=0.5;exitY=1;exitDx=0;exitDy=0;" edge="1" parent="1" source="hPomdwtzm1hRZKcnTCmY-21">
          <mxGeometry width="50" height="50" relative="1" as="geometry">
            <mxPoint x="270" y="310" as="sourcePoint" />
            <mxPoint x="520" y="250" as="targetPoint" />
            <Array as="points">
              <mxPoint x="640" y="250" />
            </Array>
          </mxGeometry>
        </mxCell>
        <mxCell id="hPomdwtzm1hRZKcnTCmY-23" value="&lt;b&gt;YES&lt;/b&gt;" style="text;html=1;align=center;verticalAlign=middle;resizable=0;points=[];autosize=1;strokeColor=none;" vertex="1" parent="1">
          <mxGeometry x="600" y="230" width="40" height="20" as="geometry" />
        </mxCell>
        <mxCell id="hPomdwtzm1hRZKcnTCmY-24" value="Send Message Request Accepted" style="ellipse;whiteSpace=wrap;html=1;" vertex="1" parent="1">
          <mxGeometry x="400" y="230" width="120.5" height="40" as="geometry" />
        </mxCell>
        <mxCell id="hPomdwtzm1hRZKcnTCmY-25" value="" style="endArrow=classic;html=1;exitX=0;exitY=0.5;exitDx=0;exitDy=0;" edge="1" parent="1">
          <mxGeometry width="50" height="50" relative="1" as="geometry">
            <mxPoint x="400" y="250" as="sourcePoint" />
            <mxPoint x="380" y="250" as="targetPoint" />
          </mxGeometry>
        </mxCell>
        <mxCell id="hPomdwtzm1hRZKcnTCmY-26" value="" style="shape=line;html=1;strokeWidth=6;fillColor=#000000;rotation=-90;" vertex="1" parent="1">
          <mxGeometry x="339.5" y="249.5" width="70" height="10" as="geometry" />
        </mxCell>
        <mxCell id="hPomdwtzm1hRZKcnTCmY-27" value="" style="endArrow=classic;html=1;exitX=0;exitY=0.5;exitDx=0;exitDy=0;" edge="1" parent="1">
          <mxGeometry width="50" height="50" relative="1" as="geometry">
            <mxPoint x="374.5" y="233.25" as="sourcePoint" />
            <mxPoint x="354.5" y="233.25" as="targetPoint" />
          </mxGeometry>
        </mxCell>
        <mxCell id="hPomdwtzm1hRZKcnTCmY-28" value="" style="endArrow=classic;html=1;exitX=0;exitY=0.5;exitDx=0;exitDy=0;" edge="1" parent="1">
          <mxGeometry width="50" height="50" relative="1" as="geometry">
            <mxPoint x="374.5" y="275.75" as="sourcePoint" />
            <mxPoint x="354.5" y="275.75" as="targetPoint" />
          </mxGeometry>
        </mxCell>
        <mxCell id="hPomdwtzm1hRZKcnTCmY-29" value="Driver Name" style="ellipse;whiteSpace=wrap;html=1;" vertex="1" parent="1">
          <mxGeometry x="290" y="214.5" width="64.5" height="32.5" as="geometry" />
        </mxCell>
        <mxCell id="hPomdwtzm1hRZKcnTCmY-30" value="Transport No" style="ellipse;whiteSpace=wrap;html=1;" vertex="1" parent="1">
          <mxGeometry x="297" y="255" width="59" height="42.5" as="geometry" />
        </mxCell>
        <mxCell id="hPomdwtzm1hRZKcnTCmY-31" value="" style="endArrow=classic;html=1;exitX=0;exitY=0.5;exitDx=0;exitDy=0;" edge="1" parent="1">
          <mxGeometry width="50" height="50" relative="1" as="geometry">
            <mxPoint x="290" y="230.25" as="sourcePoint" />
            <mxPoint x="270" y="230.25" as="targetPoint" />
          </mxGeometry>
        </mxCell>
        <mxCell id="hPomdwtzm1hRZKcnTCmY-32" value="" style="endArrow=classic;html=1;exitX=0;exitY=0.5;exitDx=0;exitDy=0;" edge="1" parent="1">
          <mxGeometry width="50" height="50" relative="1" as="geometry">
            <mxPoint x="293" y="275.75" as="sourcePoint" />
            <mxPoint x="273" y="275.75" as="targetPoint" />
          </mxGeometry>
        </mxCell>
        <mxCell id="hPomdwtzm1hRZKcnTCmY-33" value="" style="shape=line;html=1;strokeWidth=6;fillColor=#000000;rotation=-90;" vertex="1" parent="1">
          <mxGeometry x="235" y="249.5" width="70" height="10" as="geometry" />
        </mxCell>
        <mxCell id="hPomdwtzm1hRZKcnTCmY-34" value="" style="endArrow=classic;html=1;exitX=0.55;exitY=0.42;exitDx=0;exitDy=0;exitPerimeter=0;" edge="1" parent="1" source="hPomdwtzm1hRZKcnTCmY-33">
          <mxGeometry width="50" height="50" relative="1" as="geometry">
            <mxPoint x="270" y="300" as="sourcePoint" />
            <mxPoint x="200" y="400" as="targetPoint" />
            <Array as="points">
              <mxPoint x="200" y="251" />
            </Array>
          </mxGeometry>
        </mxCell>
        <mxCell id="hPomdwtzm1hRZKcnTCmY-35" value="" style="endArrow=classic;html=1;exitX=1;exitY=0.5;exitDx=0;exitDy=0;" edge="1" parent="1" source="hPomdwtzm1hRZKcnTCmY-21">
          <mxGeometry width="50" height="50" relative="1" as="geometry">
            <mxPoint x="270" y="300" as="sourcePoint" />
            <mxPoint x="520" y="320" as="targetPoint" />
            <Array as="points">
              <mxPoint x="720" y="211" />
              <mxPoint x="720" y="320" />
            </Array>
          </mxGeometry>
        </mxCell>
        <mxCell id="hPomdwtzm1hRZKcnTCmY-36" value="Send Message Request Not Accepted" style="ellipse;whiteSpace=wrap;html=1;" vertex="1" parent="1">
          <mxGeometry x="399.5" y="293.5" width="120.5" height="52.5" as="geometry" />
        </mxCell>
        <mxCell id="hPomdwtzm1hRZKcnTCmY-37" value="" style="endArrow=classic;html=1;exitX=0;exitY=0.5;exitDx=0;exitDy=0;" edge="1" parent="1">
          <mxGeometry width="50" height="50" relative="1" as="geometry">
            <mxPoint x="399.5" y="319.25" as="sourcePoint" />
            <mxPoint x="379.5" y="319.25" as="targetPoint" />
          </mxGeometry>
        </mxCell>
        <mxCell id="hPomdwtzm1hRZKcnTCmY-38" value="Sorry for Inconvenience" style="ellipse;whiteSpace=wrap;html=1;" vertex="1" parent="1">
          <mxGeometry x="262" y="306" width="120.5" height="40" as="geometry" />
        </mxCell>
        <mxCell id="hPomdwtzm1hRZKcnTCmY-39" value="" style="endArrow=classic;html=1;" edge="1" parent="1">
          <mxGeometry width="50" height="50" relative="1" as="geometry">
            <mxPoint x="320" y="348" as="sourcePoint" />
            <mxPoint x="320" y="398" as="targetPoint" />
          </mxGeometry>
        </mxCell>
        <mxCell id="hPomdwtzm1hRZKcnTCmY-40" value="" style="shape=line;html=1;strokeWidth=6;fillColor=#000000;rotation=0;" vertex="1" parent="1">
          <mxGeometry x="190" y="397" width="140" height="10" as="geometry" />
        </mxCell>
        <mxCell id="hPomdwtzm1hRZKcnTCmY-41" value="&lt;b&gt;NO&lt;/b&gt;" style="text;html=1;align=center;verticalAlign=middle;resizable=0;points=[];autosize=1;strokeColor=none;" vertex="1" parent="1">
          <mxGeometry x="675" y="190" width="30" height="20" as="geometry" />
        </mxCell>
        <mxCell id="hPomdwtzm1hRZKcnTCmY-42" value="" style="endArrow=classic;html=1;exitX=0.52;exitY=0.44;exitDx=0;exitDy=0;exitPerimeter=0;" edge="1" parent="1" source="hPomdwtzm1hRZKcnTCmY-40">
          <mxGeometry width="50" height="50" relative="1" as="geometry">
            <mxPoint x="262" y="407" as="sourcePoint" />
            <mxPoint x="262" y="430" as="targetPoint" />
          </mxGeometry>
        </mxCell>
        <mxCell id="hPomdwtzm1hRZKcnTCmY-43" value="" style="ellipse;html=1;shape=endState;fillColor=#000000;strokeColor=#ff0000;" vertex="1" parent="1">
          <mxGeometry x="248" y="430" width="30" height="30" as="geometry" />
        </mxCell>
        <mxCell id="hPomdwtzm1hRZKcnTCmY-45" value="" style="endArrow=none;html=1;" edge="1" parent="1">
          <mxGeometry width="50" height="50" relative="1" as="geometry">
            <mxPoint x="560" y="480" as="sourcePoint" />
            <mxPoint x="560" y="50" as="targetPoint" />
          </mxGeometry>
        </mxCell>
      </root>
    </mxGraphModel>
  </diagram>
</mxfile>
